<svg xmlns="http://www.w3.org/2000/svg" viewBox="-123.9 225.7 49.7 50.4"><path fill="#FFF" d="M-94.793 265.228c0 2.093-.373 3.732-1.025 4.734-.746 1.001-1.771 1.547-3.263 1.547-1.49 0-2.61-.546-3.355-1.547s-1.119-2.64-1.119-4.734V247.93c0-2.094.373-3.733 1.119-4.734s1.864-1.548 3.355-1.548c1.492 0 2.61.547 3.263 1.548.745 1.001 1.025 2.55 1.025 4.734v17.298z"/><path fill="#89C623" d="M-104.207 234.365c0-1.366.466-2.549 1.491-3.55 1.026-1.002 2.237-1.457 3.635-1.457 1.399 0 2.61.455 3.542 1.457 1.026 1.001 1.492 2.184 1.492 3.55 0 1.366-.466 2.55-1.492 3.55-.932 1.002-2.143 1.457-3.542 1.457-1.398 0-2.61-.455-3.635-1.456-1.025-1.002-1.491-2.185-1.491-3.55z"/></svg>