<svg xmlns="http://www.w3.org/2000/svg" viewBox="-256 348.6 97.4 97.4"><path fill="#FFF" d="M-226.9 370.9h39.2c3.7 0 6.8 2.8 6.8 6.8v39.2c0 4-3 6.8-6.8 6.8h-39.2c-3.7 0-6.8-2.8-6.8-6.8v-39.2c0-4 3.1-6.8 6.8-6.8zm31.6 5.9c-1.3 0-2.4 1.1-2.4 2.4v5.7c0 1.3 1.1 2.4 2.4 2.4h6c1.3 0 2.4-1.1 2.4-2.4v-5.7c0-1.3-1.1-2.4-2.4-2.4h-6zm8.4 16.4h-4.6c.4 1.4.7 3 .7 4.5 0 8.8-7.3 15.9-16.4 15.9-9.1 0-16.4-7.1-16.4-15.9 0-1.6.2-3.1.7-4.5h-4.8v22.3c0 1.2.9 2.1 2.1 2.1h36.7c1.2 0 2.1-.9 2.1-2.1l-.1-22.3zm-20.4-6.3c-5.8 0-10.6 4.6-10.6 10.3s4.7 10.3 10.6 10.3c5.8 0 10.6-4.6 10.6-10.3s-4.7-10.3-10.6-10.3z"/></svg>