<svg xmlns="http://www.w3.org/2000/svg" viewBox="-34 35.9 430.1 430.1"><circle fill="#FFF" cx="319.9" cy="121" r="35.9"/><ellipse fill="#FFF" cx="179" cy="298.9" rx="179" ry="127"/><ellipse fill="#FFF" cx="352.1" cy="230.4" rx="36.1" ry="33.5"/><ellipse fill="#FFF" cx="11" cy="230.4" rx="31" ry="33.5"/><path d="M256.3 336.2c-2.2-1.4-4.8-2.3-7.4-2.3-2.2 0-4.4.6-6.4 2-19 11.3-41.4 17.6-63.5 17.6-16.6 0-33.2-3.5-48.2-10.9h-.2c-2.3-.9-4.8-2.9-7.6-4.8-1.4-.9-2.9-1.8-4.6-2.5-1.6-.7-3.4-1.2-5.4-1.2-1.6 0-3.3.4-5 1.1-.1 0-.2.1-.3.1-2.6 1-4.7 2.8-6 5-1.4 2.2-2 4.8-2 7.4 0 2.3.6 4.7 1.7 6.8 1.1 2 2.8 3.8 4.9 4.9 21.4 14.5 46.7 21 72 21 22.8 0 45.8-5.3 66.3-14.9l.1-.1.1-.1c2.7-1.6 6.3-3 9.7-5.1 1.7-1.1 3.3-2.3 4.7-3.9 1.4-1.6 2.5-3.6 3.2-5.9.3-1 .4-2 .4-3 0-1.9-.5-3.7-1.2-5.3-1.2-2.4-3.1-4.4-5.3-5.9zM396 234c.1 1 .1 1.9.1 2.8 0 10.4-3.4 20.5-8.9 29-5.2 8-12.4 14.6-20.7 19.2.5 4.2.8 8.3.8 12.5 0 22.5-7.8 44.6-21.3 62.3-25 33.2-63.3 52.8-102 62.7-20.6 5-41.9 7.6-63.2 7.6-31.7 0-63.4-5.7-93-17.6-30.8-12.6-60-32.7-78-62.1-9.6-15.7-14.9-34.1-14.9-52.7 0-4.2.3-8.4.8-12.5-8.1-4.5-15.1-11-20.3-18.7-5.5-8.3-9.1-17.9-9.5-28.2v-.1c0-14.3 6.2-27.9 15.9-37.9s22.9-16.6 37.1-16.6h.6c1.5-.1 3-.2 4.5-.2 7.1 0 14.3 1.2 21 3.8 5.8 2.4 11.5 5.4 16.7 9.4 1.7-.9 3.5-1.9 5.5-2.6 31.1-18.4 67.2-25.5 102.4-27.5.3-17.4 2.4-35.7 10.9-51.7 7.1-13.3 19.4-23.6 34-27.2h.2c5.6-1.1 11.2-1.6 16.8-1.6 14.9 0 29.6 3.5 43.3 9 6.1-9.2 14.8-16.4 25-20.4l.1-.1h.1c6-1.9 12.3-3 18.6-3 6.7 0 13.4 1.2 19.8 4h.1c9.1 3.5 16.7 9.9 22.2 17.9 5.4 8 8.6 17.7 8.6 27.6 0 1.8-.1 3.7-.3 5.5v.1c-1.1 12.8-7.6 24-16.7 32.1-9.2 8-21.2 12.9-33.5 12.9-2 0-4-.1-5.9-.4-12.2-.9-23.5-6.8-31.9-15.6-8.4-8.8-13.8-20.5-13.8-33.1 0-.6.1-1.2.1-1.8-11.4-5.1-23.6-9.3-35.6-9.3-1.7 0-3.5.1-5.2.3-9 .9-17.4 6.6-21.5 14.8-6.2 12-7.4 26.1-7.6 40.1 34.6 2.3 69.5 10.6 100 28.1l.4.3c.6.3 1.7.9 2.6 1.4 2.1-1.7 4.3-3.5 6.9-5 9.3-6.2 20.2-9.2 31.2-9.2 4.9 0 9.7.6 14.5 1.8l.2.1h.2c11.2 2.8 21.3 9.3 28.9 17.9 7.6 9 12.7 19.9 13.7 31.9zM294 120.6c0 .5 0 .9.1 1.4v.1c.2 6 3.1 11.6 7.4 15.8 4.3 4.1 10.1 6.7 15.9 6.7h1.5c5.9 0 11.8-2.5 16.1-6.7 4.4-4.1 7.3-9.8 7.5-15.8 0-.5.1-.9.1-1.4 0-6.2-2.9-12.2-7.5-16.6-4.6-4.4-10.7-7.1-16.7-7.1-2 0-3.9.3-5.8.9h-.2c-5 1.3-9.7 4.4-13 8.4-3.4 4.1-5.4 9.1-5.4 14.3zM38.3 213.5c-4.6-2.2-9.4-3.7-14.2-3.7-.8 0-1.6 0-2.4.1h-.2c-6.8.2-13.7 3.1-18.8 7.9-5.2 4.7-8.6 11.1-8.8 18.2v.2c0 .6-.1 1.1-.1 1.7 0 4.3 1.3 8.5 3.6 12.4 1.7 2.8 3.9 5.4 6.3 7.7 8-17.5 20.4-32.3 34.6-44.5zm301.8 85c0-15.5-5.6-31.1-14.6-43.6-18.1-25.1-46.1-41.5-75.2-50.6l-.2-.1c-5.6-1.7-11.2-3.2-16.9-4.5-17-3.9-34.5-5.8-51.9-5.8-23.4 0-46.8 3.5-69.2 10.4-29.1 9.2-57.2 25.5-75.2 50.7-9.1 12.6-14.5 28.2-14.5 43.8 0 5.7.7 11.5 2.2 17 3.3 12.5 9.7 23.7 18 33.4s18.5 18.1 29.2 24.8c2.4 1.5 4.8 2.9 7.2 4.2 31.1 17.4 66.9 25 102.4 25 6 0 12.1-.2 18-.6 35.8-3 71.7-13.5 100.8-35.1 9.2-6.8 17.8-15.1 24.6-24.5 6.8-9.4 11.8-19.9 14-31.4.8-4.4 1.3-8.7 1.3-13.1zm28.2-61.7c0-3.8-.9-7.5-2.8-11v-.1c-2.5-5.2-6.5-9.1-11.2-11.8-4.8-2.7-10.4-4.1-16-4.1-5.1 0-10.1 1.1-14.6 3.4 14.2 12.3 26.7 27.2 34.7 44.6 2.6-2.3 4.8-5 6.5-8.1 2.2-3.9 3.4-8.4 3.4-12.9z"/><path fill="#FB4501" d="M273.5 267.9c1.1 2.8 1.6 5.8 1.6 8.7 0 5.9-2 11.6-5.4 16.2-3.4 4.6-8.1 8.2-13.7 9.7h-.2c-2.6.9-5.3 1.3-8 1.3-6.3 0-12.4-2.3-17.3-6.1s-8.6-9.3-9.7-15.8v-.2c-.4-1.7-.6-3.4-.6-5 0-5.6 1.9-11.1 5.1-15.6 3.2-4.5 7.6-8 12.8-9.8h.1c3-1.1 6.1-1.6 9.2-1.6 5.6 0 11.2 1.7 15.8 4.8 4.6 3.1 8.4 7.6 10.2 13.1.1.2.1.2.1.3zm-167.6 34.6h.1c2.7 1 5.6 1.5 8.3 1.5 7 0 13.7-2.9 18.9-7.5 5.1-4.7 8.6-11.3 8.6-18.8V276c0-7.5-3.5-14.1-8.5-18.8-5.1-4.7-11.8-7.6-18.8-7.6-1.9 0-3.8.2-5.6.7h-.1c-9.3 1.9-17.4 8.8-20.4 18.2-.9 2.6-1.3 5.3-1.3 7.9 0 5.8 1.9 11.4 5.2 16.1 3.3 4.7 7.9 8.3 13.6 10-.1-.1-.1 0 0 0z"/></svg>