<svg xmlns="http://www.w3.org/2000/svg" viewBox="0 0 482.3 435.8"><path d="M44.5 193.1c-.9 0-1.7.7-1.8 1.8L38.4 234l4.3 38.2c.1 1 .9 1.8 1.8 1.8s1.7-.7 1.8-1.8l4.9-38.2-4.9-39.1c-.2-1.1-.9-1.8-1.8-1.8zm-16.1 15c-.9 0-1.6.7-1.7 1.7L23.4 234l3.2 23.8c.1 1 .8 1.7 1.7 1.7.9 0 1.6-.7 1.7-1.7l3.8-23.8-3.8-24.2c0-1-.8-1.7-1.6-1.7zm33.2-22.7c-1.2 0-2.1.9-2.2 2.1l-4.1 46.4 4.1 44.7c.1 1.2 1 2.1 2.2 2.1 1.1 0 2-.9 2.2-2.1l4.6-44.7-4.6-46.4c-.2-1.2-1.1-2.1-2.2-2.1zm17.2-1.6c-1.3 0-2.4 1.1-2.6 2.5L72.4 234l3.8 46.1c.1 1.4 1.2 2.5 2.6 2.5 1.3 0 2.4-1.1 2.6-2.5l4.4-46.1-4.4-47.7c-.2-1.4-1.3-2.5-2.6-2.5zm20.3 96.7zm0-90.8c-.1-1.6-1.4-2.9-2.9-2.9-1.6 0-2.8 1.2-2.9 2.9L89.6 234l3.6 46.5c.1 1.6 1.4 2.9 2.9 2.9 1.6 0 2.8-1.2 2.9-2.9l4.1-46.5-4-44.3zm14.6-30.9c-1.8 0-3.2 1.4-3.3 3.3L107 234l3.4 46.5c.1 1.8 1.5 3.3 3.3 3.3 1.7 0 3.2-1.4 3.3-3.3l3.9-46.5-3.9-72c-.1-1.8-1.5-3.2-3.3-3.2zm17.4-16.6c-2 0-3.6 1.6-3.7 3.6l-3.2 88.4 3.2 46.2c.1 2 1.7 3.6 3.7 3.6s3.6-1.6 3.7-3.6l3.6-46.2-3.6-88.4c-.1-2-1.7-3.6-3.7-3.6zm18.1-8c-2.2 0-4 1.8-4 4l-3 95.8 3 45.7c.1 2.2 1.9 4 4 4 2.2 0 4-1.8 4-4l3.3-45.7-3.3-95.8c-.1-2.2-1.8-4-4-4zm22.3.8c-.1-2.5-2-4.4-4.4-4.4-2.4 0-4.3 1.9-4.4 4.4l-2.7 99 2.7 45.4c.1 2.4 2 4.4 4.4 4.4 2.4 0 4.3-1.9 4.4-4.4l3.1-45.4-3.1-99zm0 144.4v.1zm13.7-146.6c-2.6 0-4.7 2.1-4.8 4.8l-2.5 96.5 2.5 45c.1 2.6 2.2 4.7 4.8 4.7 2.6 0 4.7-2.1 4.8-4.8l2.8-45-2.8-96.5c-.1-2.6-2.2-4.7-4.8-4.7zm18.2 3.1c-2.8 0-5.1 2.3-5.2 5.1l-2.3 93 2.3 44.7c.1 2.8 2.3 5.1 5.2 5.1 2.8 0 5.1-2.2 5.2-5.1l2.6-44.7-2.6-93c-.1-2.8-2.3-5.1-5.2-5.1zm21.5-17c-.9-.6-1.9-.9-3.1-.9-1.1 0-2.1.3-3 .9-1.5 1-2.5 2.7-2.5 4.6v1L214.2 234c0 .1 2.1 44.5 2.1 44.5v.2c.1 1.2.5 2.4 1.3 3.3 1 1.2 2.5 2 4.2 2 1.5 0 2.9-.6 3.9-1.6s1.6-2.4 1.7-3.9l.2-4.4 2.1-40-2.3-110.6c-.1-2-1.1-3.6-2.5-4.6zm2.4 159.6v-.1.1zm15.8-170.1c-.9-.5-1.9-.8-3-.8-1.4 0-2.7.5-3.7 1.3-1.3 1.1-2.2 2.7-2.2 4.5v.6l-2.4 120 1.2 22.2 1.2 21.6c0 3.2 2.7 5.8 5.9 5.8s5.8-2.6 5.9-5.9l2.6-43.8-2.6-120.5c0-2.1-1.2-4-2.9-5zm162.2 68.5c-7.3 0-14.3 1.5-20.7 4.2-4.3-48.3-44.7-86.1-94.1-86.1-12.1 0-23.9 2.4-34.3 6.4-4 1.6-5.1 3.2-5.2 6.3v170c0 3.3 2.6 5.8 5.8 6.1h148.4c29.6 0 53.6-23.7 53.6-53.3 0-29.6-23.9-53.6-53.5-53.6z" fill="#FFF"/></svg>