<svg xmlns="http://www.w3.org/2000/svg" viewBox="0 0 120 120"><path fill-rule="evenodd" clip-rule="evenodd" fill="#1CCAFF" d="M120 60c0-8.7-5.1-16.2-12.5-19.7 2.7-7.7 1.1-16.5-5.1-22.7-6.1-6.1-15-7.8-22.7-5.1C76.2 5.1 68.7 0 60 0S43.8 5.1 40.3 12.5c-7.7-2.8-16.6-1.1-22.7 5.1s-7.8 15.1-5.1 22.7C5.1 43.8 0 51.3 0 60s5.1 16.2 12.6 19.7c-2.7 7.7-1 16.5 5.1 22.7s15 7.8 22.7 5.1c3.5 7.4 11 12.6 19.7 12.6s16.2-5.1 19.7-12.5c7.7 2.8 16.6 1.1 22.7-5.1s7.8-15.1 5.1-22.7C114.9 76.2 120 68.7 120 60z"/><path fill-rule="evenodd" clip-rule="evenodd" fill="#FFFFFD" d="M93.8 46.7L83.1 36 54.7 64.4l-18-18L26.1 57l28.7 28.6 1.6-1.6z"/></svg>