<svg xmlns="http://www.w3.org/2000/svg" viewBox="0 0 1024 721"><path opacity=".12" fill-rule="evenodd" clip-rule="evenodd" d="M407 206l242 161.6 34-17.6-276-144z"/><path fill="#FFF" d="M855.1 220.7s-6.8-48.2-27.8-69.4c-26.6-27.9-56.4-28-70.1-29.6-97.8-7.1-244.6-7.1-244.6-7.1h-.3s-146.8 0-244.6 7.1c-13.7 1.6-43.5 1.8-70.1 29.6-21 21.2-27.8 69.4-27.8 69.4s-7 56.6-7 113.2v53c0 56.6 7 113.2 7 113.2s6.8 48.2 27.8 69.4c26.6 27.9 61.5 27 77.1 29.9 55.9 5.4 237.7 7 237.7 7s146.9-.2 244.8-7.3c13.7-1.6 43.5-1.8 70.1-29.6 21-21.2 27.8-69.4 27.8-69.4s7-56.6 7-113.2v-53c0-56.6-7-113.2-7-113.2zM440.3 451.2V254.7l188.9 98.6-188.9 97.9z"/></svg>